<?xml version="1.0" standalone="no"?>
<!DOCTYPE svg PUBLIC "-//W3C//DTD SVG 1.1//EN" "http://www.w3.org/Graphics/SVG/1.1/DTD/svg11.dtd" >
<svg xmlns="http://www.w3.org/2000/svg">
<metadata></metadata>
<defs>
<font id="idealist_sanslight" horiz-adv-x="1103" >
<font-face units-per-em="2048" ascent="1536" descent="-512" />
<missing-glyph horiz-adv-x="604" />
<glyph horiz-adv-x="0" />
<glyph horiz-adv-x="682" />
<glyph unicode=" "  horiz-adv-x="604" />
<glyph unicode="&#x09;" horiz-adv-x="604" />
<glyph unicode="&#xa0;" horiz-adv-x="604" />
<glyph unicode="!" horiz-adv-x="425" d="M92 102q0 52 32.5 85.5t88.5 33.5t88.5 -33.5t32.5 -85.5t-32.5 -85t-88.5 -33t-88.5 33t-32.5 85zM133 1391h162l-21 -1043h-120z" />
<glyph unicode="&#x22;" horiz-adv-x="569" d="M92 1331h158l-43 -356l-113 6zM330 958v373h157l-43 -379z" />
<glyph unicode="#" horiz-adv-x="1069" d="M82 465l4 119h203l16 164h-201l5 118h208l27 219l123 -8l-23 -211h199l25 219l120 -8l-22 -211h221l-4 -118h-229l-19 -164h232l-4 -119h-240l-21 -205l-127 10l19 195h-195l-24 -205l-123 10l20 195h-190zM414 584h198l15 164h-195z" />
<glyph unicode="$" horiz-adv-x="1085" d="M92 74l49 139q184 -107 369 -107q170 0 248 60t78 164q0 95 -55 146.5t-183 84.5l-199 51q-268 70 -268 308q0 131 87 218.5t247 102.5v137h139v-135q160 -11 307 -98l-61 -117q-146 90 -324 90q-132 0 -192 -53.5t-60 -132.5q0 -75 45 -117.5t160 -73.5l180 -47 q73 -19 129 -47t101.5 -70t69.5 -103.5t24 -139.5q0 -89 -40 -162.5t-127.5 -126t-211.5 -65.5v-150h-139v143q-110 5 -195 27.5t-178 73.5z" />
<glyph unicode="%" horiz-adv-x="1478" d="M61 764q0 119 86 199.5t213 80.5t213 -80.5t86 -199.5t-86 -200t-213 -81t-213 81t-86 200zM184 764q0 -76 47.5 -122t128.5 -46t129 46t48 122t-48 122t-129 46t-128.5 -46t-47.5 -122zM322 27l714 1020l97 -66l-713 -1018zM819 260q0 119 86 200t213 81t213 -81 t86 -200t-86 -199.5t-213 -80.5t-213 80.5t-86 199.5zM942 260q0 -76 47.5 -122t128.5 -46t128.5 46t47.5 122t-47.5 122t-128.5 46t-128.5 -46t-47.5 -122z" />
<glyph unicode="&#x26;" horiz-adv-x="1462" d="M82 406q0 120 65.5 216t180.5 154q-111 94 -111 236q0 123 117 205.5t297 82.5q214 0 379 -100l-66 -117q-134 86 -313 86q-131 0 -197.5 -44t-66.5 -121q0 -85 75 -150l574 -514q50 101 65 186t15 219l-176 29l8 105h413l9 -117h-105q-2 -181 -25.5 -292.5t-86.5 -217.5 q115 -104 258 -129l-41 -137q-89 15 -155.5 49t-145.5 102q-104 -89 -209.5 -126.5t-241.5 -37.5q-225 0 -370.5 118.5t-145.5 314.5zM233 420q0 -139 100.5 -225t256.5 -86q118 0 196 26.5t150 95.5l-524 457q-179 -77 -179 -268z" />
<glyph unicode="'" horiz-adv-x="335" d="M92 1331h162l-43 -383l-117 8z" />
<glyph unicode="(" horiz-adv-x="466" d="M82 645q0 500 215 811l109 -51q-173 -361 -173 -760t173 -760l-109 -53q-215 314 -215 813z" />
<glyph unicode=")" horiz-adv-x="466" d="M61 -115q172 359 172 760t-172 760l109 51q215 -311 215 -811q0 -497 -215 -811z" />
<glyph unicode="*" horiz-adv-x="600" d="M61 1085l148 64l-129 127q26 45 78 70l125 -136l86 168q56 -14 98 -51l-100 -160l172 -22q0 -56 -23 -107l-162 33l19 -188q-27 -6 -56 -6q-15 0 -43 4l-16 184l-164 -82q-29 48 -33 102z" />
<glyph unicode="+" horiz-adv-x="847" d="M82 614v129h274v277h136v-277h274v-129h-274v-276h-136v276h-274z" />
<glyph unicode="," horiz-adv-x="428" d="M92 -168q70 28 98.5 67.5t28.5 100.5q-51 0 -83 29t-32 69q0 44 26.5 74.5t80.5 30.5q61 0 93 -47t32 -121q0 -92 -53 -164.5t-150 -103.5z" />
<glyph unicode="-" horiz-adv-x="753" d="M82 489v132h590v-132h-590z" />
<glyph unicode="." horiz-adv-x="446" d="M102 102q0 52 32.5 85.5t88.5 33.5t88.5 -33.5t32.5 -85.5t-32.5 -85t-88.5 -33t-88.5 33t-32.5 85z" />
<glyph unicode="/" horiz-adv-x="598" d="M4 -27l498 1440l133 -45l-500 -1440z" />
<glyph unicode="0" horiz-adv-x="1474" d="M82 666q0 204 84 362t233 244t338 86q191 0 341 -89t232.5 -246.5t82.5 -356.5q0 -307 -184.5 -500t-471.5 -193t-471 193t-184 500zM238 666q0 -261 140 -409t359 -148t359.5 148t140.5 409q0 255 -140.5 407t-359.5 152q-220 0 -359.5 -148t-139.5 -411z" />
<glyph unicode="1" horiz-adv-x="614" d="M61 1155l308 178l112 -2v-1331h-151v1157l-226 -117z" />
<glyph unicode="2" horiz-adv-x="1126" d="M123 1225q102 73 204 103t242 30q196 0 314 -100.5t118 -276.5q0 -226 -251 -463l-383 -364v-13h637v-141h-857v137l467 453q117 116 173.5 206t56.5 183q0 118 -79 182t-208 64q-108 0 -192 -28.5t-168 -92.5z" />
<glyph unicode="3" horiz-adv-x="1118" d="M72 125l73 119q161 -133 369 -133q158 0 248 80.5t90 214.5q0 137 -80 201.5t-223 64.5h-201v129h189q106 0 171.5 60.5t65.5 152.5q0 101 -70.5 157t-179.5 56q-96 0 -172.5 -26.5t-152.5 -84.5l-70 115q89 69 181.5 98t219.5 29q176 0 287 -91.5t111 -234.5 q0 -83 -41 -158t-117 -116v-13q110 -35 173 -120.5t63 -214.5q0 -90 -32 -169t-92.5 -139t-154 -94.5t-209.5 -34.5q-143 0 -246.5 36t-199.5 116z" />
<glyph unicode="4" horiz-adv-x="1189" d="M72 301v115l692 925l188 -10v-895h156l-18 -135h-138v-301h-151v301h-729zM264 436h537v717l-19 2z" />
<glyph unicode="5" horiz-adv-x="1136" d="M72 106l75 121q84 -63 162 -90.5t180 -27.5q177 0 274 84.5t97 222.5q0 293 -360 293q-91 0 -152 -14.5t-147 -53.5l-31 12v678h770v-135h-623v-381q126 27 238 27q206 0 332.5 -114.5t126.5 -311.5q0 -191 -137.5 -317t-380.5 -126q-132 0 -230 31t-194 102z" />
<glyph unicode="6" horiz-adv-x="1136" d="M92 637q0 180 61 318.5t169.5 224t250.5 130t312 46.5l16 -131q-109 -2 -203.5 -20.5t-179 -59t-144 -100.5t-94 -150.5t-34.5 -204.5q141 141 383 141q181 0 298 -113.5t117 -305.5q0 -107 -37 -192.5t-101 -138.5t-144.5 -80.5t-171.5 -27.5q-236 0 -367 166.5 t-131 497.5zM248 551q0 -206 90 -325.5t248 -119.5q141 0 223 80t82 226q0 140 -74 212t-219 72q-111 0 -193.5 -35.5t-156.5 -109.5z" />
<glyph unicode="7" horiz-adv-x="1046" d="M92 1196v135h854v-106l-534 -1225h-170l532 1196h-682z" />
<glyph unicode="8" horiz-adv-x="1167" d="M102 381q0 115 68 210.5t176 135.5v8q-74 35 -123 110.5t-49 164.5q0 160 113.5 254t298.5 94q112 0 202.5 -36.5t147.5 -113.5t57 -184q0 -99 -49.5 -173.5t-118.5 -111.5v-8q109 -41 174.5 -133t65.5 -207q0 -197 -129.5 -307.5t-349.5 -110.5q-245 0 -364.5 111.5 t-119.5 296.5zM256 381q0 -126 79 -201.5t251 -75.5q160 0 242.5 77t82.5 200q0 135 -82.5 203.5t-242.5 68.5q-157 0 -243.5 -69t-86.5 -203zM326 1014q0 -99 67.5 -165.5t192.5 -66.5t190.5 62t65.5 170q0 102 -63 160.5t-193 58.5q-129 0 -194.5 -58.5t-65.5 -160.5z" />
<glyph unicode="9" horiz-adv-x="1148" d="M106 934q0 111 39.5 195t106.5 132.5t147.5 72.5t171.5 24q110 0 197 -35.5t154 -111t103 -203t36 -301.5q0 -145 -40 -264.5t-112.5 -204.5t-174.5 -144.5t-224.5 -89t-263.5 -31.5l-17 138q142 3 263 38.5t214 101.5t147 169t58 233q-84 -76 -177 -110.5t-210 -34.5 q-182 0 -300 116t-118 310zM260 938q0 -141 75 -218t218 -77q111 0 193.5 36.5t162.5 113.5q0 217 -89.5 326.5t-260.5 109.5q-299 0 -299 -291z" />
<glyph unicode=":" horiz-adv-x="446" d="M102 102q0 52 32.5 85.5t88.5 33.5t88.5 -33.5t32.5 -85.5t-32.5 -85t-88.5 -33t-88.5 33t-32.5 85zM102 841q0 52 32.5 85.5t88.5 33.5t88.5 -33.5t32.5 -85.5t-32.5 -85t-88.5 -33t-88.5 33t-32.5 85z" />
<glyph unicode=";" horiz-adv-x="446" d="M92 -168q70 28 98.5 67.5t28.5 100.5q-51 0 -83 29t-32 69q0 44 26.5 74.5t80.5 30.5q61 0 93 -47t32 -121q0 -92 -53 -164.5t-150 -103.5zM102 842q0 52 32.5 85.5t88.5 33.5t88.5 -33.5t32.5 -85.5t-32.5 -85.5t-88.5 -33.5t-88.5 33.5t-32.5 85.5z" />
<glyph unicode="&#x3c;" horiz-adv-x="643" d="M82 629v67l397 326l92 -76l-319 -282l319 -277l-92 -84z" />
<glyph unicode="=" horiz-adv-x="757" d="M82 473v131h594v-131h-594zM82 758v131h594v-131h-594z" />
<glyph unicode="&#x3e;" horiz-adv-x="643" d="M82 379l319 283l-319 276l92 84l397 -326v-67l-397 -326z" />
<glyph unicode="?" horiz-adv-x="1079" d="M53 1221q188 176 475 176q104 0 189 -24t148 -71.5t97.5 -124t34.5 -176.5q0 -121 -77.5 -215.5t-200.5 -140.5q-103 -39 -151 -84.5t-48 -126.5v-86h-106q-25 49 -25 125q0 54 22.5 101t61 81t77 57.5t83.5 41.5q105 44 157 106t52 162q0 116 -82.5 179t-245.5 63 q-108 0 -208.5 -38.5t-178.5 -109.5zM348 102q0 52 32.5 85.5t88.5 33.5t88.5 -33.5t32.5 -85.5t-32.5 -85t-88.5 -33t-88.5 33t-32.5 85z" />
<glyph unicode="@" horiz-adv-x="1595" d="M82 508q0 149 58 275.5t158 212.5t235.5 134t289.5 48q138 0 262.5 -44t220 -124t151.5 -202t56 -269q0 -164 -74.5 -257.5t-207.5 -93.5q-59 0 -110 27.5t-81 73.5q-47 -58 -120.5 -90.5t-155.5 -32.5q-147 0 -240.5 92t-93.5 240t104.5 249t260.5 101q124 0 213 -80 l55 55l55 -12v-369q0 -65 33 -100t86 -35q139 0 139 232q0 162 -73.5 279.5t-197 175t-282.5 57.5q-127 0 -237 -36.5t-191.5 -104t-128.5 -171.5t-47 -231q0 -168 72.5 -290t198 -182.5t288.5 -60.5q259 0 434 84l41 -127q-213 -86 -475 -86q-144 0 -269 42t-221 122.5 t-151 208.5t-55 289zM567 496q0 -207 209 -207q74 0 122.5 22.5t92.5 73.5v274q-76 70 -186 70q-119 0 -178.5 -61t-59.5 -172z" />
<glyph unicode="A" horiz-adv-x="1431" d="M51 0l576 1331h180l573 -1331h-161l-191 449h-633l-186 -449h-158zM449 575h526l-248 599h-29z" />
<glyph unicode="B" horiz-adv-x="1216" d="M133 0v1331h463q192 0 313 -84t121 -252q0 -79 -36 -152.5t-101 -113.5v-8q111 -41 171 -126.5t60 -197.5q0 -177 -125.5 -287t-336.5 -110h-529zM285 131h358q151 0 240.5 64.5t89.5 193.5q0 131 -78.5 192.5t-232.5 61.5h-377v-512zM285 766h354q118 0 179 60.5 t61 162.5q0 105 -70.5 161t-196.5 56h-327v-440z" />
<glyph unicode="C" horiz-adv-x="1327" d="M82 668q0 151 57 281t154.5 219t228 139.5t275.5 50.5q141 0 249.5 -32t206.5 -103l-63 -123q-188 127 -393 127q-163 0 -291 -72t-199 -199.5t-71 -287.5q0 -173 74 -300t199.5 -190t285.5 -63q130 0 220.5 25t194.5 93l45 -135q-101 -66 -215.5 -95.5t-267.5 -29.5 q-108 0 -207 26t-187.5 82t-154 136t-103.5 196t-38 255z" />
<glyph unicode="D" horiz-adv-x="1419" d="M133 0v1331h485q345 0 532 -172t187 -485q0 -320 -206 -497t-556 -177h-442zM287 133h288q132 0 240.5 31.5t191.5 95t129 169t46 245.5q0 526 -564 526h-331v-1067z" />
<glyph unicode="E" horiz-adv-x="1089" d="M133 0v1331h834v-131h-680v-440h612v-131h-612v-496h710v-133h-864z" />
<glyph unicode="F" horiz-adv-x="1058" d="M133 0v1331h834v-131h-680v-448h612v-129h-612v-623h-154z" />
<glyph unicode="G" horiz-adv-x="1429" d="M82 666q0 201 95.5 360.5t256 245.5t354.5 86q286 0 492 -135l-66 -121q-183 125 -426 125q-249 0 -400.5 -157.5t-151.5 -403.5q0 -125 43 -231t117.5 -177.5t175 -111.5t214.5 -40q211 0 375 95v366h-358v127h504v-563q-216 -158 -541 -158q-138 0 -261 46 t-217.5 131.5t-150 218.5t-55.5 297z" />
<glyph unicode="H" horiz-adv-x="1351" d="M133 0v1331h154v-569h778v569h154v-1331h-154v631h-778v-631h-154z" />
<glyph unicode="I" horiz-adv-x="419" d="M133 0v1331h154v-1331h-154z" />
<glyph unicode="J" horiz-adv-x="440" d="M-184 -375q118 20 189 61.5t110 123.5t39 213v1308h153v-1311q0 -461 -440 -526z" />
<glyph unicode="K" horiz-adv-x="1306" d="M133 0v1331h152v-745l708 745h195l-526 -545l593 -786h-188l-510 690l-272 -264v-426h-152z" />
<glyph unicode="L" horiz-adv-x="1021" d="M133 0v1331h154v-1198h643v-133h-797z" />
<glyph unicode="M" horiz-adv-x="1556" d="M133 0v1331h213l432 -639l434 639h211v-1331h-151v756l4 407h-19l-456 -667h-56l-448 667h-16l2 -407v-756h-150z" />
<glyph unicode="N" horiz-adv-x="1488" d="M133 0v1331h164l922 -1149l-9 408v741h146v-1331h-170l-922 1157l15 -471v-686h-146z" />
<glyph unicode="O" horiz-adv-x="1589" d="M82 666q0 152 55 282t150.5 219.5t227 140t280.5 50.5q202 0 364 -86t255 -244.5t93 -361.5q0 -152 -55 -282.5t-150.5 -220t-226.5 -140t-280 -50.5q-202 0 -364 86t-255.5 245t-93.5 362zM236 666q0 -128 45.5 -235t122 -178t178 -110t213.5 -39q113 0 214.5 39 t178 110t121.5 178t45 235q0 169 -78 299t-204 196t-277 66q-113 0 -214.5 -39t-178 -109.5t-121.5 -177.5t-45 -235z" />
<glyph unicode="P" horiz-adv-x="1183" d="M133 0v1331h451q227 0 372.5 -109t145.5 -300q0 -196 -144 -307t-374 -111h-297v-504h-154zM287 637h266q196 0 295.5 68t99.5 217q0 139 -101 208.5t-294 69.5h-266v-563z" />
<glyph unicode="Q" horiz-adv-x="1589" d="M82 666q0 203 93.5 361.5t255.5 244.5t364 86t364 -86t255 -244.5t93 -361.5q0 -248 -138.5 -420t-367.5 -232l472 -100l-35 -152l-885 246q-205 57 -338 236.5t-133 421.5zM236 666q0 -128 45.5 -235t122 -178t178 -110t213.5 -39t213.5 39t178 110t122 178t45.5 235 q0 169 -78 299t-204 196t-277 66t-277 -66t-204 -196t-78 -299z" />
<glyph unicode="R" horiz-adv-x="1263" d="M133 0v1331h522q200 0 326.5 -99.5t126.5 -268.5q0 -116 -80.5 -213.5t-228.5 -135.5l403 -614h-186l-373 588h-356v-588h-154zM287 721h340q147 0 237 62.5t90 179.5q0 118 -85 177.5t-244 59.5h-338v-479z" />
<glyph unicode="S" horiz-adv-x="1153" d="M92 82l53 139q195 -112 402 -112q188 0 275 70.5t87 185.5q0 112 -61.5 172.5t-206.5 91.5l-215 45q-130 26 -210.5 112.5t-80.5 221.5q0 156 113.5 253t314.5 97q126 0 224.5 -25t193.5 -84l-66 -121q-84 53 -167 77t-185 24q-143 0 -212.5 -63.5t-69.5 -149.5 q0 -84 55 -136.5t178 -78.5l195 -41q163 -35 257.5 -131t94.5 -262q0 -80 -32 -150t-93.5 -125t-160.5 -87t-224 -32q-140 0 -242 24.5t-217 84.5z" />
<glyph unicode="T" horiz-adv-x="1136" d="M82 1200v131h973v-131h-410v-1200h-153v1200h-410z" />
<glyph unicode="U" horiz-adv-x="1353" d="M123 594v737h153v-751q0 -236 105.5 -356t294.5 -120t295 120t106 356v751h154v-737q0 -312 -146.5 -466.5t-408.5 -154.5q-263 0 -408 154t-145 467z" />
<glyph unicode="V" horiz-adv-x="1380" d="M41 1331h170l471 -1184h35l463 1184h159l-540 -1331h-211z" />
<glyph unicode="W" horiz-adv-x="2039" d="M41 1331h168l373 -1194h12l354 1194h137l373 -1194h12l371 1194h158l-426 -1331h-221l-326 1057h-12l-320 -1057h-221z" />
<glyph unicode="X" horiz-adv-x="1380" d="M61 0l510 707l-462 624h186l391 -551l391 551h180l-458 -626l520 -705h-191l-448 623l-440 -623h-179z" />
<glyph unicode="Y" horiz-adv-x="1282" d="M51 1331h172l416 -665h12l410 665h170l-512 -813v-518h-152v516z" />
<glyph unicode="Z" horiz-adv-x="1239" d="M72 0v113l899 1089h-842v129h1022v-121l-885 -1077h901v-133h-1095z" />
<glyph unicode="[" horiz-adv-x="493" d="M113 -186v1691h309v-119h-164v-1454h164v-118h-309z" />
<glyph unicode="\" horiz-adv-x="598" d="M-37 1368l133 45l498 -1440l-131 -45z" />
<glyph unicode="]" horiz-adv-x="493" d="M72 -68h164v1454h-164v119h309v-1691h-309v118z" />
<glyph unicode="^" horiz-adv-x="741" d="M72 1057l284 301h29l285 -301l-45 -105l-254 238l-254 -238z" />
<glyph unicode="_" horiz-adv-x="743" d="M0 -94h743v-127h-743v127z" />
<glyph unicode="`" horiz-adv-x="540" d="M131 1419l129 80l176 -348h-106z" />
<glyph unicode="a" horiz-adv-x="1232" d="M117 285q0 71 20 126t68 111q139 43 298.5 63.5t391.5 26.5v76q0 121 -66 174t-231 53q-185 0 -371 -77l-39 123q105 44 202 63.5t218 19.5q223 0 327.5 -83.5t104.5 -266.5v-444q0 -82 29 -112.5t109 -33.5v-104q-55 -20 -113 -20q-64 0 -98 40.5t-41 135.5 q-165 -176 -455 -176q-179 0 -266.5 80.5t-87.5 224.5zM268 297q0 -188 217 -188q124 0 223.5 36t186.5 121v238q-344 -5 -573 -66q-54 -62 -54 -141z" />
<glyph unicode="b" horiz-adv-x="1245" d="M133 80v1415h148v-555q90 57 179.5 80.5t207.5 23.5q243 0 374.5 -130.5t131.5 -383.5q0 -250 -169.5 -400t-435.5 -150q-137 0 -235.5 23t-200.5 77zM281 172q73 -35 136 -48t154 -13q206 0 329.5 111.5t123.5 309.5q0 191 -95.5 289.5t-279.5 98.5q-203 0 -368 -115 v-633z" />
<glyph unicode="c" d="M72 506q0 158 75 281.5t206 190t294 66.5q118 0 201.5 -15.5t159.5 -51.5l-66 -117q-119 58 -283 58q-207 0 -322.5 -105.5t-115.5 -302.5q0 -179 117.5 -289t290.5 -110q198 0 344 73l49 -121q-170 -83 -404 -83q-250 0 -398 148.5t-148 377.5z" />
<glyph unicode="d" horiz-adv-x="1243" d="M72 510q0 237 154.5 385.5t391.5 148.5q107 0 185.5 -23.5t159.5 -78.5v553h147v-1452q-123 -35 -234 -49t-272 -14q-248 0 -390 135t-142 395zM223 512q0 -202 115.5 -301.5t308.5 -99.5q183 0 316 39v643q-147 125 -328 125q-114 0 -206 -44.5t-149 -138.5t-57 -223z " />
<glyph unicode="e" horiz-adv-x="1169" d="M72 510q0 237 157.5 385.5t397.5 148.5q233 0 352 -114t119 -305q0 -77 -17 -146h-860q5 -94 41 -166t95 -116t132.5 -66t159.5 -22q215 0 357 75l43 -129q-92 -42 -184 -58.5t-224 -16.5q-272 0 -420.5 142t-148.5 388zM223 604h733q0 167 -83 240.5t-263 73.5 q-94 0 -176.5 -35t-141 -107.5t-69.5 -171.5z" />
<glyph unicode="f" horiz-adv-x="739" d="M61 918v106h185v70q0 177 108 289t287 112q91 0 161.5 -18t141.5 -58l-61 -114q-100 59 -226 59q-264 0 -264 -264v-76h324l-8 -127l-316 10v-907h-147v895z" />
<glyph unicode="g" horiz-adv-x="1191" d="M76 -203q0 163 141 256q-115 55 -115 189q0 63 34.5 119.5t99.5 95.5q-82 98 -82 231q0 165 121.5 260.5t340.5 95.5h549v-104h-264q148 -90 148 -252q0 -155 -120.5 -255.5t-328.5 -100.5q-168 0 -276 57q-95 -39 -95 -127q0 -60 49 -99.5t154 -39.5h270q185 0 340 -39 q82 -105 82 -231q0 -86 -37.5 -153t-96.5 -107.5t-139.5 -67t-157 -36t-158.5 -9.5q-221 0 -340 84t-119 233zM207 -180q0 -111 91 -165t257 -54q52 0 104.5 5.5t114.5 22t109 42.5t78.5 71t31.5 104q0 71 -41 129q-119 25 -233 25h-252q-61 0 -139 10q-121 -59 -121 -190z M287 688q0 -118 80.5 -178.5t232.5 -60.5q141 0 226 61t85 178q0 118 -87 182t-224 64q-146 0 -229.5 -65t-83.5 -181z" />
<glyph unicode="h" horiz-adv-x="1243" d="M133 0v1495h148v-643q141 192 395 192q206 0 320 -114.5t114 -331.5v-598h-147v600q0 153 -72 235.5t-215 82.5q-137 0 -228 -54.5t-167 -173.5v-690h-148z" />
<glyph unicode="i" horiz-adv-x="413" d="M90 1343q0 49 32.5 83t84.5 34t84.5 -34t32.5 -83q0 -48 -32.5 -82t-84.5 -34t-84.5 34t-32.5 82zM133 0v1024h148v-1024h-148z" />
<glyph unicode="j" horiz-adv-x="415" d="M-109 -379q121 12 182.5 79t61.5 185v1139h148v-1102q0 -196 -95 -308t-282 -122zM92 1343q0 49 32.5 83t84.5 34t84.5 -34t32.5 -83q0 -48 -32.5 -82t-84.5 -34t-84.5 34t-32.5 82z" />
<glyph unicode="k" horiz-adv-x="1110" d="M133 0v1495h148v-932l202 137l365 324h186l2 -16l-446 -385l479 -607l-4 -16h-170l-422 541l-192 -113v-428h-148z" />
<glyph unicode="l" horiz-adv-x="464" d="M133 313v1182h148v-1214q0 -83 35 -120.5t120 -41.5v-127q-28 -4 -49 -4q-135 0 -194.5 83t-59.5 242z" />
<glyph unicode="m" horiz-adv-x="1974" d="M133 0v1024h121l14 -188q147 208 400 208q130 0 214.5 -49t137.5 -153q165 202 420 202q205 0 303 -110.5t98 -335.5v-598h-147v594q0 162 -61.5 243t-192.5 81q-231 0 -381 -205q10 -62 10 -115v-598h-147v596q0 322 -254 322q-251 0 -387 -222v-696h-148z" />
<glyph unicode="n" horiz-adv-x="1247" d="M133 0v1024h123l16 -184q135 204 414 204q206 0 317 -114t111 -332v-598h-147v600q0 154 -69.5 236t-211.5 82t-237.5 -55t-167.5 -173v-690h-148z" />
<glyph unicode="o" horiz-adv-x="1277" d="M72 512q0 160 76 282.5t204 186t287 63.5t287 -63.5t204 -186t76 -282.5t-76 -282.5t-204 -186t-287 -63.5t-287 63.5t-204 186t-76 282.5zM221 512q0 -185 116 -297.5t302 -112.5t302 112.5t116 297.5t-115.5 297.5t-302.5 112.5q-186 0 -302 -112.5t-116 -297.5z" />
<glyph unicode="p" horiz-adv-x="1222" d="M133 -471v1456q119 32 221 45.5t232 13.5q274 0 419.5 -135t145.5 -389q0 -154 -59 -274.5t-180 -193t-287 -72.5q-109 0 -185.5 23.5t-158.5 88.5v-563h-148zM281 248q153 -135 344 -135q169 0 272.5 109t103.5 298q0 198 -113 299t-308 101q-90 0 -154.5 -9.5 t-144.5 -33.5v-629z" />
<glyph unicode="q" horiz-adv-x="1232" d="M72 508q0 160 82 284t215.5 188t294.5 64q129 0 232 -24t204 -78v-1413h-148v559q-169 -108 -381 -108q-240 0 -369.5 135.5t-129.5 392.5zM221 510q0 -196 92.5 -297.5t274.5 -101.5q199 0 364 118v623q-77 38 -137 52t-149 14q-199 0 -322 -106t-123 -302z" />
<glyph unicode="r" horiz-adv-x="1001" d="M133 0v1024h125l12 -188q68 106 174 157t220 51q95 0 167 -31t130 -104l-103 -94q-82 98 -219 98q-212 0 -358 -221v-692h-148z" />
<glyph unicode="s" horiz-adv-x="1013" d="M92 41l39 131q146 -63 311 -63q349 0 349 174q0 85 -71 126t-237 60q-389 43 -389 291q0 126 109 205t319 79q108 0 188.5 -13t166.5 -46l-52 -123q-140 58 -305 58q-145 0 -213.5 -40.5t-68.5 -111.5q0 -33 13.5 -58t36 -42t62 -29.5t80.5 -20.5t102 -16 q71 -10 129 -25.5t109.5 -41t86.5 -60t55 -84t20 -110.5q0 -152 -126 -226.5t-355 -74.5q-215 0 -359 61z" />
<glyph unicode="t" horiz-adv-x="882" d="M41 915v60l127 78l141 223l45 -6v-246h420l-6 -131l-414 14v-559q0 -237 215 -237q124 0 228 63l55 -117q-125 -77 -299 -77q-173 0 -259.5 93.5t-86.5 272.5v547z" />
<glyph unicode="u" horiz-adv-x="1230" d="M133 426v598h148v-600q0 -152 70 -235t204 -83q141 0 231.5 55t163.5 175v688h148v-1024h-123l-17 180q-74 -103 -172.5 -151.5t-230.5 -48.5q-422 0 -422 446z" />
<glyph unicode="v" horiz-adv-x="1234" d="M61 1024h168l373 -891h19l389 891h164l-472 -1024h-188z" />
<glyph unicode="w" horiz-adv-x="1736" d="M61 1024h158l291 -874h10l295 874h125l297 -874h10l275 874h153l-346 -1024h-186l-262 778h-11l-266 -778h-192z" />
<glyph unicode="x" horiz-adv-x="1132" d="M51 0l387 532l-354 492h170l303 -432h12l305 432h177l-357 -485l387 -539h-176l-336 471h-12l-336 -471h-170z" />
<glyph unicode="y" horiz-adv-x="1220" d="M61 1024h166l418 -868h12l338 868h164l-504 -1227q-40 -98 -125.5 -153.5t-185.5 -55.5q-55 0 -117 23l25 121q42 -11 84 -11q78 0 129 38.5t80 121.5l35 101z" />
<glyph unicode="z" horiz-adv-x="1101" d="M92 0v98l707 801h-682v125h889v-98l-713 -799h717v-127h-918z" />
<glyph unicode="{" horiz-adv-x="591" d="M61 594v129h37q109 0 109 102v422q0 122 71.5 190t186.5 68h65v-127h-47q-129 0 -129 -125v-403q0 -145 -104 -186v-11q104 -40 104 -186v-404q0 -63 31 -93.5t98 -30.5h47v-127h-65q-117 0 -187.5 68t-70.5 190v422q0 102 -109 102h-37z" />
<glyph unicode="|" horiz-adv-x="444" d="M154 -225v1630h137v-1630h-137z" />
<glyph unicode="}" horiz-adv-x="591" d="M61 -61h48q129 0 129 124v404q0 145 104 186v11q-104 40 -104 186v403q0 64 -31 94.5t-98 30.5h-48v127h66q117 0 187.5 -68t70.5 -190v-422q0 -102 109 -102h36v-129h-36q-109 0 -109 -102v-422q0 -122 -71.5 -190t-186.5 -68h-66v127z" />
<glyph unicode="~" horiz-adv-x="880" d="M61 690q92 92 226 92q74 0 166 -41q84 -43 149 -43q94 0 154 52l63 -76q-47 -56 -98.5 -80.5t-120.5 -24.5q-70 0 -158 43q-95 45 -168 45q-105 0 -174 -57z" />
<glyph unicode="&#xa2;" d="M72 506q0 221 141.5 366.5t366.5 167.5v142h131v-140q170 -6 297 -65l-66 -117q-119 58 -283 58q-207 0 -322.5 -105.5t-115.5 -302.5q0 -179 117.5 -289t290.5 -110q198 0 344 73l49 -121q-136 -67 -311 -79v-154h-131v152q-234 12 -371 157.5t-137 366.5z" />
<glyph unicode="&#xa5;" horiz-adv-x="1253" d="M51 1219h172l398 -609h22l395 609h164l-399 -601h155v-122h-655v122h154zM303 299v123h655v-123h-253v-299h-152v299h-250z" />
<glyph unicode="&#xa8;" horiz-adv-x="831" d="M82 1282q0 47 29 74.5t77 27.5t77.5 -27.5t29.5 -74.5q0 -45 -28.5 -73.5t-78.5 -28.5q-47 0 -76.5 28.5t-29.5 73.5zM535 1282q0 47 29 74.5t77 27.5t77.5 -27.5t29.5 -74.5q0 -45 -28.5 -73.5t-78.5 -28.5q-47 0 -76.5 28.5t-29.5 73.5z" />
<glyph unicode="&#xa9;" horiz-adv-x="1552" d="M82 641q0 200 92 353.5t249 234t353 80.5t353 -80.5t249 -234t92 -353.5t-92 -353.5t-249 -234t-353 -80.5t-353 80.5t-249 234t-92 353.5zM221 641q0 -131 44 -235t120 -170t176 -101t215 -35t215 35t176 101t120 170t44 235t-44 235t-120 170t-176 101t-215 35 t-215 -35t-176 -101t-120 -170t-44 -235zM418 643q0 162 109 254t278 92q122 0 221 -57l-55 -101q-73 43 -172 43q-117 0 -183.5 -60t-66.5 -171q0 -110 69 -169.5t175 -59.5q113 0 204 51l35 -105q-113 -65 -239 -65q-173 0 -274 94.5t-101 253.5z" />
<glyph unicode="&#xab;" horiz-adv-x="917" d="M82 492v69l350 279l62 -92l-246 -218l246 -225l-62 -98zM432 498v67l352 297l62 -94l-246 -238l246 -247l-62 -97z" />
<glyph unicode="&#xad;" horiz-adv-x="753" d="M82 489v132h590v-132h-590z" />
<glyph unicode="&#xae;" horiz-adv-x="897" d="M72 963q0 160 106.5 264t270.5 104t270 -104t106 -264t-106 -265.5t-270 -105.5t-270.5 105.5t-106.5 265.5zM164 963q0 -133 76 -211t209 -78t208.5 78t75.5 211t-75.5 209.5t-208.5 76.5t-209 -77t-76 -209zM317 784v373h138q60 0 100.5 -26t40.5 -82q0 -69 -76 -101 l88 -164h-86l-76 152h-51v-152h-78zM395 1001h68q23 0 38 13t15 37q0 39 -55 39h-66v-89z" />
<glyph unicode="&#xb4;" horiz-adv-x="540" d="M131 1151l176 348l129 -80l-198 -268h-107z" />
<glyph unicode="&#xb8;" horiz-adv-x="483" d="M100 -369q83 12 128.5 45.5t45.5 83.5q0 60 -67 60h-64v180l117 8l-12 -100q66 0 109.5 -38t43.5 -93q0 -88 -72 -156t-208 -90z" />
<glyph unicode="&#xbb;" horiz-adv-x="917" d="M72 283l245 247l-245 238l61 94l352 -297v-67l-352 -312zM424 305l246 225l-246 218l61 92l351 -279v-69l-351 -285z" />
<glyph unicode="&#x2c6;" horiz-adv-x="737" d="M109 1208l241 244h37l242 -244l-37 -71l-223 153l-224 -153z" />
<glyph unicode="&#x2da;" horiz-adv-x="614" d="M94 1341q0 88 62 144.5t151 56.5t151 -56.5t62 -144.5t-62 -144t-151 -56t-151 56t-62 144zM199 1341q0 -50 28 -79t80 -29t80.5 29t28.5 79t-28.5 79.5t-80.5 29.5t-80 -29.5t-28 -79.5z" />
<glyph unicode="&#x2dc;" horiz-adv-x="862" d="M84 1266q49 51 98 71.5t117 20.5q90 0 154 -47q53 -41 127 -41q44 0 74.5 12t62.5 41l61 -72q-44 -55 -90 -78.5t-108 -23.5q-82 0 -152 45q-64 43 -141 43q-98 0 -162 -61z" />
<glyph unicode="&#x401;" horiz-adv-x="1089" d="M133 0v1331h834v-131h-680v-440h612v-131h-612v-496h710v-133h-864zM213 1577q0 49 29.5 77.5t76.5 28.5q50 0 80.5 -28.5t30.5 -77.5q0 -46 -31 -75t-80 -29q-46 0 -76 29t-30 75zM659 1577q0 48 32 77t79 29q46 0 77.5 -29t31.5 -77q0 -45 -32 -74.5t-77 -29.5 t-78 29.5t-33 74.5z" />
<glyph unicode="&#x402;" horiz-adv-x="1566" d="M61 1204v127h992v-127h-424v-430q158 178 393 178q207 0 319.5 -114t112.5 -328v-463q0 -189 -100 -317.5t-281 -169.5l-31 131q261 80 261 342v473q0 150 -69.5 233.5t-211.5 83.5q-237 0 -393 -200v-623h-152v1204h-416z" />
<glyph unicode="&#x403;" horiz-adv-x="1024" d="M133 0v1331h819v-131h-665v-1200h-154zM504 1446l172 350l129 -78l-187 -272h-114z" />
<glyph unicode="&#x404;" horiz-adv-x="1327" d="M82 668q0 151 57 281t154.5 219t228 139.5t275.5 50.5q141 0 249.5 -32t206.5 -103l-63 -123q-188 127 -393 127q-221 0 -372.5 -128.5t-182.5 -334.5h716v-129h-722q7 -164 82.5 -283t198.5 -178t278 -59q130 0 220.5 25t194.5 93l45 -135q-101 -66 -215.5 -95.5 t-267.5 -29.5q-108 0 -207 26t-187.5 82t-154 136t-103.5 196t-38 255z" />
<glyph unicode="&#x405;" horiz-adv-x="1153" d="M92 82l53 139q195 -112 402 -112q188 0 275 70.5t87 185.5q0 112 -61.5 172.5t-206.5 91.5l-215 45q-130 26 -210.5 112.5t-80.5 221.5q0 156 113.5 253t314.5 97q126 0 224.5 -25t193.5 -84l-66 -121q-84 53 -167 77t-185 24q-143 0 -212.5 -63.5t-69.5 -149.5 q0 -84 55 -136.5t178 -78.5l195 -41q163 -35 257.5 -131t94.5 -262q0 -80 -32 -150t-93.5 -125t-160.5 -87t-224 -32q-140 0 -242 24.5t-217 84.5z" />
<glyph unicode="&#x406;" horiz-adv-x="419" d="M133 0v1331h154v-1331h-154z" />
<glyph unicode="&#x407;" horiz-adv-x="419" d="M-131 1579q0 49 29.5 78t76.5 29q50 0 80.5 -29t30.5 -78q0 -46 -31 -75t-80 -29q-46 0 -76 29t-30 75zM133 0v1331h154v-1331h-154zM315 1579q0 48 32 77.5t79 29.5q46 0 77.5 -29.5t31.5 -77.5q0 -45 -32 -74.5t-77 -29.5t-78 29.5t-33 74.5z" />
<glyph unicode="&#x408;" horiz-adv-x="440" d="M-184 -375q118 20 189 61.5t110 123.5t39 213v1308h153v-1311q0 -461 -440 -526z" />
<glyph unicode="&#x409;" horiz-adv-x="2183" d="M20 4l29 133q43 -14 105 -14q118 0 184 137q96 203 96 694v377h860v-510h324q224 0 358.5 -104.5t134.5 -304.5q0 -196 -135 -304t-358 -108h-477v1200h-557v-330q0 -445 -113 -682q-110 -204 -305 -204q-85 0 -146 20zM1294 131h320q344 0 344 281q0 149 -91 213.5 t-257 64.5h-316v-559z" />
<glyph unicode="&#x40a;" horiz-adv-x="2056" d="M133 0v1331h154v-528h727v528h153v-528h324q110 0 198.5 -23.5t155.5 -70.5t103.5 -123.5t36.5 -177.5q0 -196 -135.5 -302t-358.5 -106h-477v672h-727v-672h-154zM1167 131h320q344 0 344 277q0 76 -24.5 129t-72.5 82t-108.5 41t-142.5 12h-316v-541z" />
<glyph unicode="&#x40b;" horiz-adv-x="1566" d="M61 1204v127h992v-127h-424v-430q158 178 393 178q207 0 319.5 -114t112.5 -328v-510h-151v506q0 150 -69.5 233.5t-211.5 83.5q-237 0 -393 -200v-623h-152v1204h-416z" />
<glyph unicode="&#x40c;" horiz-adv-x="1298" d="M133 0v1331h152v-502h323l223 359q100 164 267 164q56 0 121 -15l-27 -133q-35 6 -70 6q-59 0 -101 -28t-81 -90l-205 -320l502 -772h-176l-447 698h-329v-698h-152zM555 1446l172 350l129 -78l-186 -272h-115z" />
<glyph unicode="&#x40e;" horiz-adv-x="1347" d="M41 1331h174l496 -1083h14l420 1083h162l-490 -1239q-75 -193 -161 -277.5t-218 -84.5q-96 0 -170 39l39 125q55 -21 117 -21q76 0 128.5 44t88.5 142zM397 1657l99 41q31 -60 85 -89.5t121 -29.5q77 0 127.5 28t85.5 91l97 -41q-37 -97 -117.5 -150t-192.5 -53 q-107 0 -189 55t-116 148z" />
<glyph unicode="&#x40f;" horiz-adv-x="1323" d="M133 0v1331h154v-1200h749v1200h154v-1331h-451l-24 -297h-107l-24 297h-451z" />
<glyph unicode="&#x410;" horiz-adv-x="1431" d="M51 0l576 1331h180l573 -1331h-161l-191 449h-633l-186 -449h-158zM449 575h526l-248 599h-29z" />
<glyph unicode="&#x411;" horiz-adv-x="1173" d="M133 0v1331h846v-131h-692v-391h313q230 0 366 -105t136 -301q0 -192 -135.5 -297.5t-360.5 -105.5h-473zM287 131h291q191 0 279.5 64.5t88.5 207.5q0 150 -92.5 212.5t-282.5 62.5h-284v-547z" />
<glyph unicode="&#x412;" horiz-adv-x="1216" d="M133 0v1331h463q192 0 313 -84t121 -252q0 -79 -36 -152.5t-101 -113.5v-8q111 -41 171 -126.5t60 -197.5q0 -177 -125.5 -287t-336.5 -110h-529zM285 131h358q151 0 240.5 64.5t89.5 193.5q0 131 -78.5 192.5t-232.5 61.5h-377v-512zM285 766h354q118 0 179 60.5 t61 162.5q0 105 -70.5 161t-196.5 56h-327v-440z" />
<glyph unicode="&#x413;" horiz-adv-x="1024" d="M133 0v1331h819v-131h-665v-1200h-154z" />
<glyph unicode="&#x414;" horiz-adv-x="1484" d="M61 133q98 29 166 117q90 117 122 286t32 375v420h895v-1198h147l-16 -430h-121l-24 297h-1051l-33 -297h-117v430zM303 133h821v1067h-594v-287q0 -562 -227 -780z" />
<glyph unicode="&#x415;" horiz-adv-x="1089" d="M133 0v1331h834v-131h-680v-440h612v-131h-612v-496h710v-133h-864z" />
<glyph unicode="&#x416;" horiz-adv-x="2009" d="M61 0l482 760l-162 332q-58 118 -197 118q-13 0 -61 -6l-19 131q61 17 119 17q86 0 155 -41t109 -123l185 -369h256v512h151v-512h260l181 369q39 81 109.5 122.5t156.5 41.5q58 0 119 -15l-19 -133q-42 6 -65 6q-135 0 -193 -118l-162 -332l482 -760h-179l-428 690h-262 v-690h-151v690h-262l-426 -690h-179z" />
<glyph unicode="&#x417;" horiz-adv-x="1134" d="M72 94l51 131q97 -66 191 -92.5t214 -26.5q158 0 259.5 76.5t101.5 216.5q0 137 -77 205t-218 68h-264v127h237q118 0 183 54t65 153q0 223 -289 223q-111 0 -189 -25t-161 -86l-61 107q90 71 190.5 102t226.5 31q196 0 315.5 -92t119.5 -252q0 -85 -42 -153.5 t-120 -104.5v-8q114 -39 175.5 -131t61.5 -214q0 -191 -144 -310.5t-368 -119.5q-145 0 -248 26.5t-210 94.5z" />
<glyph unicode="&#x418;" horiz-adv-x="1431" d="M133 0v1331h152v-1116h12l850 1116h151v-1331h-151v1096h-12l-840 -1096h-162z" />
<glyph unicode="&#x419;" horiz-adv-x="1431" d="M133 0v1331h152v-1116h12l850 1116h151v-1331h-151v1096h-12l-840 -1096h-162zM412 1657l98 41q31 -60 85.5 -89.5t121.5 -29.5q77 0 127.5 28t85.5 91l96 -41q-37 -97 -117 -150t-192 -53q-107 0 -189 55t-116 148z" />
<glyph unicode="&#x41a;" horiz-adv-x="1298" d="M133 0v1331h152v-502h323l223 359q100 164 267 164q56 0 121 -15l-27 -133q-35 6 -70 6q-59 0 -101 -28t-81 -90l-205 -320l502 -772h-176l-447 698h-329v-698h-152z" />
<glyph unicode="&#x41b;" horiz-adv-x="1456" d="M20 4l29 133q43 -14 105 -14q118 0 184 137q96 203 96 694v377h889v-1331h-154v1200h-585v-330q0 -445 -113 -682q-110 -204 -305 -204q-85 0 -146 20z" />
<glyph unicode="&#x41c;" horiz-adv-x="1556" d="M133 0v1331h213l432 -639l434 639h211v-1331h-151v756l4 407h-19l-456 -667h-56l-448 667h-16l2 -407v-756h-150z" />
<glyph unicode="&#x41d;" horiz-adv-x="1351" d="M133 0v1331h154v-569h778v569h154v-1331h-154v631h-778v-631h-154z" />
<glyph unicode="&#x41e;" horiz-adv-x="1589" d="M82 666q0 152 55 282t150.5 219.5t227 140t280.5 50.5q202 0 364 -86t255 -244.5t93 -361.5q0 -152 -55 -282.5t-150.5 -220t-226.5 -140t-280 -50.5q-202 0 -364 86t-255.5 245t-93.5 362zM236 666q0 -128 45.5 -235t122 -178t178 -110t213.5 -39q113 0 214.5 39 t178 110t121.5 178t45 235q0 169 -78 299t-204 196t-277 66q-113 0 -214.5 -39t-178 -109.5t-121.5 -177.5t-45 -235z" />
<glyph unicode="&#x41f;" horiz-adv-x="1314" d="M133 0v1331h1049v-1331h-154v1200h-741v-1200h-154z" />
<glyph unicode="&#x420;" horiz-adv-x="1183" d="M133 0v1331h451q227 0 372.5 -109t145.5 -300q0 -196 -144 -307t-374 -111h-297v-504h-154zM287 637h266q196 0 295.5 68t99.5 217q0 139 -101 208.5t-294 69.5h-266v-563z" />
<glyph unicode="&#x421;" horiz-adv-x="1327" d="M82 668q0 151 57 281t154.5 219t228 139.5t275.5 50.5q141 0 249.5 -32t206.5 -103l-63 -123q-188 127 -393 127q-163 0 -291 -72t-199 -199.5t-71 -287.5q0 -173 74 -300t199.5 -190t285.5 -63q130 0 220.5 25t194.5 93l45 -135q-101 -66 -215.5 -95.5t-267.5 -29.5 q-108 0 -207 26t-187.5 82t-154 136t-103.5 196t-38 255z" />
<glyph unicode="&#x422;" horiz-adv-x="1136" d="M82 1200v131h973v-131h-410v-1200h-153v1200h-410z" />
<glyph unicode="&#x423;" horiz-adv-x="1347" d="M41 1331h174l496 -1083h14l420 1083h162l-490 -1239q-75 -193 -161 -277.5t-218 -84.5q-96 0 -170 39l39 125q55 -21 117 -21q76 0 128.5 44t88.5 142z" />
<glyph unicode="&#x424;" horiz-adv-x="1710" d="M82 674q0 107 33.5 198.5t96.5 160.5t160 108t218 39q80 0 188 -19v197h152v-197q111 19 188 19q160 0 277.5 -68t175 -181.5t57.5 -256.5q0 -106 -33 -197.5t-95 -160t-158.5 -107.5t-217.5 -39q-86 0 -194 18v-188h-152v188q-102 -18 -192 -18q-121 0 -217.5 39 t-158.5 107.5t-95 160t-33 197.5zM233 674q0 -178 95 -276.5t258 -98.5q94 0 192 18v719q-108 17 -192 17q-162 0 -257.5 -100.5t-95.5 -278.5zM930 317q98 -18 194 -18q162 0 257.5 98.5t95.5 276.5t-95 278.5t-258 100.5q-86 0 -194 -17v-719z" />
<glyph unicode="&#x425;" horiz-adv-x="1380" d="M61 0l510 707l-462 624h186l391 -551l391 551h180l-458 -626l520 -705h-191l-448 623l-440 -623h-179z" />
<glyph unicode="&#x426;" horiz-adv-x="1404" d="M133 0v1331h154v-1200h749v1200h154v-1200h153l-16 -428h-115l-24 297h-1055z" />
<glyph unicode="&#x427;" horiz-adv-x="1261" d="M102 934v397h154v-381q0 -205 102 -300t342 -95q158 0 275 18v758h153v-1331h-153v440q-180 -26 -316 -26q-268 0 -412.5 128t-144.5 392z" />
<glyph unicode="&#x428;" horiz-adv-x="1882" d="M133 0v1331h154v-1200h577v1200h154v-1200h577v1200h154v-1331h-1616z" />
<glyph unicode="&#x429;" horiz-adv-x="1961" d="M133 0v1331h154v-1200h577v1200h154v-1200h577v1200h154v-1200h152l-17 -428h-115l-24 297h-1612z" />
<glyph unicode="&#x42a;" horiz-adv-x="1380" d="M41 1214v117h426v-510h348q224 0 359 -104.5t135 -304.5q0 -196 -135.5 -304t-358.5 -108h-502v1196zM467 131h344q344 0 344 281q0 149 -91 213.5t-257 64.5h-340v-559z" />
<glyph unicode="&#x42b;" horiz-adv-x="1581" d="M133 0v1331h154v-510h348q224 0 358.5 -104.5t134.5 -304.5q0 -196 -135 -304t-358 -108h-502zM287 131h344q344 0 344 281q0 149 -91 213.5t-257 64.5h-340v-559zM1294 0v1331h154v-1331h-154z" />
<glyph unicode="&#x42c;" horiz-adv-x="1200" d="M133 0v1331h154v-510h348q224 0 358.5 -104.5t134.5 -304.5q0 -196 -135 -304t-358 -108h-502zM287 131h344q344 0 344 281q0 149 -91 213.5t-257 64.5h-340v-559z" />
<glyph unicode="&#x42d;" horiz-adv-x="1327" d="M72 1221q198 137 481 137q152 0 280 -49t219 -138t142 -218.5t51 -284.5q0 -165 -56.5 -299.5t-152 -219.5t-216.5 -130.5t-255 -45.5q-153 0 -266 28t-219 95l39 135q103 -66 198.5 -93t227.5 -27q111 0 207.5 34t170 98.5t118 165t51.5 226.5h-682v129h680 q-25 205 -171 334t-366 129q-232 0 -416 -127z" />
<glyph unicode="&#x42e;" horiz-adv-x="1951" d="M133 0v1331h152v-565h252q31 263 212 427.5t451 164.5q195 0 348.5 -90t237.5 -247.5t84 -354.5t-84 -355t-237.5 -248t-348.5 -90q-190 0 -341.5 85.5t-237 236t-91.5 340.5h-245v-635h-152zM684 666q0 -129 41 -236.5t111.5 -178t164 -109t199.5 -38.5t199.5 38.5 t164 109t111.5 178t41 236.5t-41 236.5t-111.5 177.5t-164 108.5t-199.5 38.5t-199.5 -38.5t-164 -108.5t-111.5 -177.5t-41 -236.5z" />
<glyph unicode="&#x42f;" horiz-adv-x="1239" d="M61 0l396 559q-150 29 -242 131t-92 244q0 182 135.5 289.5t355.5 107.5h492v-1331h-154v541h-350l-362 -541h-179zM274 934q0 -91 47 -151.5t124 -86.5t182 -26h325v532h-329q-158 0 -253.5 -65t-95.5 -203z" />
<glyph unicode="&#x430;" horiz-adv-x="1232" d="M117 285q0 71 20 126t68 111q139 43 298.5 63.5t391.5 26.5v76q0 121 -66 174t-231 53q-185 0 -371 -77l-39 123q105 44 202 63.5t218 19.5q223 0 327.5 -83.5t104.5 -266.5v-444q0 -82 29 -112.5t109 -33.5v-104q-55 -20 -113 -20q-64 0 -98 40.5t-41 135.5 q-165 -176 -455 -176q-179 0 -266.5 80.5t-87.5 224.5zM268 297q0 -188 217 -188q124 0 223.5 36t186.5 121v238q-344 -5 -573 -66q-54 -62 -54 -141z" />
<glyph unicode="&#x431;" horiz-adv-x="1236" d="M82 606q0 319 127.5 489.5t372.5 217.5l245 47q61 11 118.5 47t98.5 94l86 -74q-96 -169 -301 -206l-258 -45q-141 -24 -236 -140.5t-122 -287.5h8q74 113 181.5 164t265.5 51q136 0 245 -56.5t175.5 -170t66.5 -267.5q0 -222 -148.5 -355.5t-375.5 -133.5 q-141 0 -247 45t-171.5 128.5t-98 197t-32.5 255.5zM244 473q0 -166 107.5 -264t275.5 -98q171 0 276 97.5t105 260.5q0 172 -98.5 267t-278.5 95q-179 0 -283 -98t-104 -260z" />
<glyph unicode="&#x432;" horiz-adv-x="1114" d="M133 0v1024h488q96 0 172.5 -28t125 -89.5t48.5 -148.5q0 -143 -121 -201v-8q85 -27 135.5 -92.5t50.5 -153.5q0 -139 -101 -221t-259 -82h-539zM279 123h372q112 0 172 44t60 132q0 168 -217 168h-387v-344zM279 590h364q85 0 130.5 41t45.5 119q0 73 -47.5 112 t-136.5 39h-356v-311z" />
<glyph unicode="&#x433;" horiz-adv-x="962" d="M133 0v1024h748v-127h-600v-897h-148z" />
<glyph unicode="&#x434;" horiz-adv-x="1259" d="M41 127q151 88 214.5 245t63.5 390v262h766v-897h134l-23 -385h-104l-23 258h-885l-34 -258h-109v385zM231 127h707v770h-479v-201q0 -365 -228 -569z" />
<glyph unicode="&#x435;" horiz-adv-x="1169" d="M72 510q0 237 157.5 385.5t397.5 148.5q233 0 352 -114t119 -305q0 -77 -17 -146h-860q5 -94 41 -166t95 -116t132.5 -66t159.5 -22q215 0 357 75l43 -129q-92 -42 -184 -58.5t-224 -16.5q-272 0 -420.5 142t-148.5 388zM223 604h733q0 167 -83 240.5t-263 73.5 q-94 0 -176.5 -35t-141 -107.5t-69.5 -171.5z" />
<glyph unicode="&#x436;" horiz-adv-x="1759" d="M61 0l392 571l-131 242q-29 51 -64 75.5t-86 24.5q-24 0 -51 -6l-25 119q43 14 105 14q82 0 135.5 -35.5t89.5 -103.5l145 -274h236v397h145v-397h236l147 274q74 139 224 139q55 0 106 -14l-27 -119q-27 6 -53 6q-51 0 -84.5 -24t-62.5 -76l-131 -242l391 -571h-170 l-338 508h-238v-508h-145v508h-238l-338 -508h-170z" />
<glyph unicode="&#x437;" horiz-adv-x="1040" d="M51 74l55 119q155 -87 369 -87q165 0 254.5 55.5t89.5 153.5q0 95 -61 138t-178 43h-293v120h274q195 0 195 148q0 75 -73 116.5t-204 41.5q-171 0 -327 -78l-48 114q96 48 184.5 67t215.5 19q81 0 150 -15t125.5 -46t89 -86t32.5 -129q0 -132 -110 -193v-12 q83 -31 130.5 -96t47.5 -154q0 -149 -121.5 -241t-370.5 -92q-140 0 -236.5 21t-189.5 73z" />
<glyph unicode="&#x438;" horiz-adv-x="1220" d="M133 0v1024h146v-520l-7 -320l666 840h149v-1024h-145v399l6 430l-661 -829h-154z" />
<glyph unicode="&#x439;" horiz-adv-x="1220" d="M133 0v1024h146v-520l-7 -320l666 840h149v-1024h-145v399l6 430l-661 -829h-154zM340 1331l119 31q31 -113 151 -113q58 0 97.5 29t54.5 84l119 -31q-69 -196 -271 -196q-201 0 -270 196z" />
<glyph unicode="&#x43a;" horiz-adv-x="1134" d="M133 0v1024h148v-389h292l152 264q42 74 103 107.5t149 33.5q49 0 90 -14l-27 -129q-27 8 -67 8q-48 0 -80.5 -24t-63.5 -76l-133 -236l377 -569h-174l-328 508h-290v-508h-148z" />
<glyph unicode="&#x43b;" horiz-adv-x="1253" d="M20 6l19 113q27 -6 53 -6q101 0 156 55q64 64 85 198t21 371v287h766v-1024h-147v897h-477v-182q0 -122 -4.5 -203.5t-17.5 -169.5t-42 -153t-74 -113q-86 -92 -221 -92q-65 0 -117 22z" />
<glyph unicode="&#x43c;" horiz-adv-x="1413" d="M133 0v1024h174l400 -659l397 659h176v-1024h-145v461l6 360h-13l-366 -610h-113l-368 610h-11l6 -303v-518h-143z" />
<glyph unicode="&#x43d;" horiz-adv-x="1196" d="M133 0v1024h148v-426h634v426h148v-1024h-148v471h-634v-471h-148z" />
<glyph unicode="&#x43e;" horiz-adv-x="1277" d="M72 512q0 160 76 282.5t204 186t287 63.5t287 -63.5t204 -186t76 -282.5t-76 -282.5t-204 -186t-287 -63.5t-287 63.5t-204 186t-76 282.5zM221 512q0 -185 116 -297.5t302 -112.5t302 112.5t116 297.5t-115.5 297.5t-302.5 112.5q-186 0 -302 -112.5t-116 -297.5z" />
<glyph unicode="&#x43f;" horiz-adv-x="1181" d="M133 0v1024h916v-1024h-148v897h-620v-897h-148z" />
<glyph unicode="&#x440;" horiz-adv-x="1222" d="M133 -471v1456q119 32 221 45.5t232 13.5q274 0 419.5 -135t145.5 -389q0 -154 -59 -274.5t-180 -193t-287 -72.5q-109 0 -185.5 23.5t-158.5 88.5v-563h-148zM281 248q153 -135 344 -135q169 0 272.5 109t103.5 298q0 198 -113 299t-308 101q-90 0 -154.5 -9.5 t-144.5 -33.5v-629z" />
<glyph unicode="&#x441;" d="M72 506q0 158 75 281.5t206 190t294 66.5q118 0 201.5 -15.5t159.5 -51.5l-66 -117q-119 58 -283 58q-207 0 -322.5 -105.5t-115.5 -302.5q0 -179 117.5 -289t290.5 -110q198 0 344 73l49 -121q-170 -83 -404 -83q-250 0 -398 148.5t-148 377.5z" />
<glyph unicode="&#x442;" horiz-adv-x="1044" d="M72 897v127h901v-127h-377v-897h-147v897h-377z" />
<glyph unicode="&#x443;" horiz-adv-x="1226" d="M63 1024h173l358 -897h104l320 897h168l-459 -1198q-46 -121 -130 -181.5t-191 -60.5q-50 0 -89 10l17 125q119 0 175.5 33.5t94.5 128.5l47 119h-157z" />
<glyph unicode="&#x444;" horiz-adv-x="1650" d="M72 512q0 157 70 279.5t188 187.5t262 65q77 0 162 -26v457h145v-457q82 26 160 26q236 0 378 -140t142 -392q0 -157 -69.5 -279.5t-187.5 -187.5t-263 -65q-78 0 -160 26v-477h-145v477q-85 -26 -162 -26q-236 0 -378 140t-142 392zM221 512q0 -196 103 -302t278 -106 q75 0 152 25v766q-77 25 -152 25q-175 0 -278 -106t-103 -302zM899 129q77 -25 150 -25q176 0 278.5 106t102.5 302t-102.5 302t-278.5 106q-73 0 -150 -25v-766z" />
<glyph unicode="&#x445;" horiz-adv-x="1132" d="M51 0l387 532l-354 492h170l303 -432h12l305 432h177l-357 -485l387 -539h-176l-336 471h-12l-336 -471h-170z" />
<glyph unicode="&#x446;" horiz-adv-x="1206" d="M133 0v1024h148v-897h602v897h147v-897h135l-14 -385h-113l-16 258h-889z" />
<glyph unicode="&#x447;" horiz-adv-x="1159" d="M102 713v311h148v-299q0 -150 75.5 -222.5t231.5 -72.5q93 0 169 25.5t153 79.5v489h147v-1024h-147v403q-154 -102 -340 -102q-207 0 -322 105.5t-115 306.5z" />
<glyph unicode="&#x448;" horiz-adv-x="1671" d="M133 0v1024h148v-901h481v901h147v-901h482v901h147v-1024h-1405z" />
<glyph unicode="&#x449;" horiz-adv-x="1714" d="M133 0v1024h148v-901h481v901h147v-901h482v901h147v-897h135l-14 -385h-113l-16 258h-1397z" />
<glyph unicode="&#x44a;" horiz-adv-x="1249" d="M51 909v115h395v-375q138 66 304 66q197 0 312.5 -89.5t115.5 -265.5q0 -90 -32.5 -159.5t-91 -113t-137 -65.5t-172.5 -22h-446v897zM446 127h279q153 0 229 56t76 177q0 109 -70.5 168.5t-193.5 59.5q-104 0 -174 -13t-146 -49v-399z" />
<glyph unicode="&#x44b;" horiz-adv-x="1447" d="M133 0v1024h148v-375q138 66 303 66q197 0 312.5 -89.5t115.5 -265.5q0 -119 -57 -201.5t-152.5 -120.5t-222.5 -38h-447zM281 127h278q153 0 229 56t76 177q0 109 -70.5 168.5t-193.5 59.5q-104 0 -173.5 -13t-145.5 -49v-399zM1163 0v1024h152v-1024h-152z" />
<glyph unicode="&#x44c;" horiz-adv-x="1083" d="M133 0v1024h148v-375q138 66 303 66q197 0 312.5 -89.5t115.5 -265.5q0 -119 -57 -201.5t-152.5 -120.5t-222.5 -38h-447zM281 127h278q153 0 229 56t76 177q0 109 -70.5 168.5t-193.5 59.5q-104 0 -173.5 -13t-145.5 -49v-399z" />
<glyph unicode="&#x44d;" d="M82 51l39 131q154 -71 328 -71q197 0 312 93t130 273h-565v127h561q-51 314 -402 314q-169 0 -327 -74l-56 114q179 86 398 86q135 0 239 -39t170 -109.5t99.5 -165t33.5 -208.5q0 -244 -157.5 -393t-421.5 -149q-116 0 -204 16.5t-177 54.5z" />
<glyph unicode="&#x44e;" horiz-adv-x="1611" d="M133 0v1024h146v-430h208q29 209 172.5 329.5t352.5 120.5q238 0 383 -142.5t145 -389.5q0 -243 -146 -387.5t-382 -144.5q-225 0 -367.5 129.5t-161.5 357.5h-204v-467h-146zM631 512q0 -185 105 -295.5t276 -110.5q175 0 278 109t103 297t-103 297t-278 109t-278 -109 t-103 -297z" />
<glyph unicode="&#x44f;" horiz-adv-x="1132" d="M115 666q0 90 36.5 159.5t100 112t145 64.5t176.5 22h426v-1024h-147v356q-150 -43 -354 -43l-201 -313h-176l231 342q-112 37 -174.5 118t-62.5 206zM262 662q0 -107 75.5 -164.5t201.5 -57.5q173 0 313 39v418h-258q-157 0 -244.5 -58t-87.5 -177z" />
<glyph unicode="&#x451;" horiz-adv-x="1169" d="M72 510q0 237 157.5 385.5t397.5 148.5q233 0 352 -114t119 -305q0 -77 -17 -146h-860q5 -94 41 -166t95 -116t132.5 -66t159.5 -22q215 0 357 75l43 -129q-92 -42 -184 -58.5t-224 -16.5q-272 0 -420.5 142t-148.5 388zM223 604h733q0 167 -83 240.5t-263 73.5 q-94 0 -176.5 -35t-141 -107.5t-69.5 -171.5zM305 1282q0 47 29 74.5t77 27.5t77.5 -27.5t29.5 -74.5q0 -45 -28.5 -73.5t-78.5 -28.5q-47 0 -76.5 28.5t-29.5 73.5zM758 1282q0 47 29 74.5t77 27.5t77.5 -27.5t29.5 -74.5q0 -45 -28.5 -73.5t-78.5 -28.5q-47 0 -76.5 28.5 t-29.5 73.5z" />
<glyph unicode="&#x452;" horiz-adv-x="1251" d="M0 1151v59l129 80l135 215l45 -6v-239h451l-6 -134l-445 17v-305q144 186 385 186q202 0 313 -114.5t111 -331.5v-519q0 -202 -96.5 -320.5t-280.5 -152.5l-32 125q136 35 199 116.5t63 221.5v531q0 152 -71 234.5t-206 82.5q-128 0 -219 -55t-166 -172v-670h-147v1128z " />
<glyph unicode="&#x453;" horiz-adv-x="962" d="M133 0v1024h748v-127h-600v-897h-148zM487 1151l177 348l129 -80l-199 -268h-107z" />
<glyph unicode="&#x454;" d="M72 506q0 158 75 281.5t206 190t294 66.5q118 0 201.5 -15.5t159.5 -51.5l-66 -117q-119 58 -283 58q-181 0 -292.5 -80.5t-139.5 -233.5h572v-127h-578q12 -165 127.5 -265.5t280.5 -100.5q198 0 344 73l49 -121q-170 -83 -404 -83q-250 0 -398 148.5t-148 377.5z" />
<glyph unicode="&#x455;" horiz-adv-x="1013" d="M92 41l39 131q146 -63 311 -63q349 0 349 174q0 85 -71 126t-237 60q-389 43 -389 291q0 126 109 205t319 79q108 0 188.5 -13t166.5 -46l-52 -123q-140 58 -305 58q-145 0 -213.5 -40.5t-68.5 -111.5q0 -33 13.5 -58t36 -42t62 -29.5t80.5 -20.5t102 -16 q71 -10 129 -25.5t109.5 -41t86.5 -60t55 -84t20 -110.5q0 -152 -126 -226.5t-355 -74.5q-215 0 -359 61z" />
<glyph unicode="&#x456;" horiz-adv-x="413" d="M90 1343q0 49 32.5 83t84.5 34t84.5 -34t32.5 -83q0 -48 -32.5 -82t-84.5 -34t-84.5 34t-32.5 82zM133 0v1024h148v-1024h-148z" />
<glyph unicode="&#x457;" horiz-adv-x="413" d="M-125 1282q0 47 29.5 74.5t77.5 27.5t77 -27.5t29 -74.5q0 -45 -28 -73.5t-78 -28.5q-47 0 -77 29t-30 73zM133 0v1024h148v-1024h-148zM328 1282q0 47 29 74.5t77 27.5t77.5 -27.5t29.5 -74.5q0 -45 -28.5 -73.5t-78.5 -28.5q-47 0 -76.5 28.5t-29.5 73.5z" />
<glyph unicode="&#x458;" horiz-adv-x="415" d="M-109 -379q121 12 182.5 79t61.5 185v1139h148v-1102q0 -196 -95 -308t-282 -122zM92 1343q0 49 32.5 83t84.5 34t84.5 -34t32.5 -83q0 -48 -32.5 -82t-84.5 -34t-84.5 34t-32.5 82z" />
<glyph unicode="&#x459;" horiz-adv-x="1841" d="M20 6l19 113q27 -6 53 -6q101 0 156 55q64 64 85 198t21 371v287h725v-375q123 66 277 66q187 0 300 -90t113 -265q0 -119 -57 -201.5t-152.5 -120.5t-222.5 -38h-405v897h-436v-182q0 -122 -4.5 -203.5t-17.5 -169.5t-42 -153t-74 -113q-86 -92 -221 -92q-65 0 -117 22z M1079 127h238q153 0 229 56t76 177q0 108 -68.5 168t-181.5 60q-94 0 -159 -13t-134 -47v-401z" />
<glyph unicode="&#x45a;" horiz-adv-x="1783" d="M133 0v1024h148v-426h593v426h148v-375q120 66 276 66q187 0 300.5 -90t113.5 -265q0 -119 -57 -201.5t-152.5 -120.5t-222.5 -38h-406v471h-593v-471h-148zM1022 127h238q153 0 229 56t76 177q0 108 -68.5 168t-181.5 60q-94 0 -159 -13t-134 -47v-401z" />
<glyph unicode="&#x45b;" horiz-adv-x="1251" d="M0 1151v59l129 80l135 215l45 -6v-239h451l-6 -134l-445 17v-305q144 186 385 186q202 0 313 -114.5t111 -331.5v-578h-147v580q0 152 -71 234.5t-206 82.5q-128 0 -219 -55t-166 -172v-670h-147v1128z" />
<glyph unicode="&#x45c;" horiz-adv-x="1134" d="M133 0v1024h148v-389h292l152 264q42 74 103 107.5t149 33.5q49 0 90 -14l-27 -129q-27 8 -67 8q-48 0 -80.5 -24t-63.5 -76l-133 -236l377 -569h-174l-328 508h-290v-508h-148zM514 1151l176 348l129 -80l-198 -268h-107z" />
<glyph unicode="&#x45e;" horiz-adv-x="1226" d="M63 1024h173l358 -897h104l320 897h168l-459 -1198q-46 -121 -130 -181.5t-191 -60.5q-50 0 -89 10l17 125q119 0 175.5 33.5t94.5 128.5l47 119h-157zM344 1331l119 31q31 -113 151 -113q58 0 97.5 29t54.5 84l119 -31q-69 -196 -271 -196q-201 0 -270 196z" />
<glyph unicode="&#x45f;" horiz-adv-x="1185" d="M133 0v1024h148v-897h624v897h148v-1024h-385l-21 -258h-108l-21 258h-385z" />
<glyph unicode="&#x490;" horiz-adv-x="1024" d="M133 0v1331h678l14 211h115l12 -342h-665v-1200h-154z" />
<glyph unicode="&#x491;" horiz-adv-x="968" d="M133 0v1024h612l17 186h112l13 -313h-606v-897h-148z" />
<glyph unicode="&#x2000;" horiz-adv-x="898" />
<glyph unicode="&#x2001;" horiz-adv-x="1796" />
<glyph unicode="&#x2002;" horiz-adv-x="898" />
<glyph unicode="&#x2003;" horiz-adv-x="1796" />
<glyph unicode="&#x2004;" horiz-adv-x="598" />
<glyph unicode="&#x2005;" horiz-adv-x="449" />
<glyph unicode="&#x2006;" horiz-adv-x="299" />
<glyph unicode="&#x2007;" horiz-adv-x="299" />
<glyph unicode="&#x2008;" horiz-adv-x="224" />
<glyph unicode="&#x2009;" horiz-adv-x="359" />
<glyph unicode="&#x200a;" horiz-adv-x="99" />
<glyph unicode="&#x2010;" horiz-adv-x="753" d="M82 489v132h590v-132h-590z" />
<glyph unicode="&#x2011;" horiz-adv-x="753" d="M82 489v132h590v-132h-590z" />
<glyph unicode="&#x2012;" horiz-adv-x="753" d="M82 489v132h590v-132h-590z" />
<glyph unicode="&#x2013;" horiz-adv-x="1185" d="M164 489v132h858v-132h-858z" />
<glyph unicode="&#x2014;" horiz-adv-x="1703" d="M184 489v132h1336v-132h-1336z" />
<glyph unicode="&#x2018;" horiz-adv-x="417" d="M82 1180q0 76 51 144.5t143 100.5l60 -67q-68 -27 -98.5 -60.5t-30.5 -87.5q49 0 72.5 -26t23.5 -64q0 -42 -25.5 -70t-76.5 -28q-57 0 -88 44t-31 114z" />
<glyph unicode="&#x2019;" horiz-adv-x="417" d="M82 983q68 27 98.5 60t30.5 87q-49 0 -72.5 26.5t-23.5 64.5q0 42 25.5 70t76.5 28q57 0 88 -44t31 -114q0 -76 -51.5 -145t-143.5 -101z" />
<glyph unicode="&#x201a;" horiz-adv-x="417" d="M82 -147q68 27 98.5 60t30.5 87q-49 0 -72.5 26t-23.5 64q0 42 25.5 70t76.5 28q57 0 88 -43.5t31 -113.5q0 -76 -51.5 -145t-143.5 -101z" />
<glyph unicode="&#x201c;" horiz-adv-x="688" d="M72 1180q0 76 51 144.5t143 100.5l60 -67q-68 -27 -98.5 -60.5t-30.5 -87.5q49 0 72.5 -26t23.5 -64q0 -42 -26 -70t-77 -28q-57 0 -87.5 44t-30.5 114zM362 1180q0 75 51.5 144t143.5 101l59 -67q-68 -27 -98.5 -60.5t-30.5 -87.5q49 0 73 -26t24 -64q0 -42 -26 -70 t-77 -28q-57 0 -88 44t-31 114z" />
<glyph unicode="&#x201d;" horiz-adv-x="688" d="M72 983q68 27 98.5 60t30.5 87q-49 0 -73 26.5t-24 64.5q0 42 26 70t77 28q57 0 88 -44t31 -114q0 -76 -51.5 -145t-143.5 -101zM362 983q69 27 99.5 60t30.5 87q-49 0 -73 26.5t-24 64.5q0 42 26 70t77 28q57 0 87.5 -44t30.5 -114q0 -76 -51.5 -145t-142.5 -101z" />
<glyph unicode="&#x201e;" horiz-adv-x="688" d="M72 -147q68 27 98.5 60t30.5 87q-49 0 -73 26t-24 64q0 42 26 70t77 28q57 0 88 -43.5t31 -113.5q0 -76 -51.5 -145t-143.5 -101zM362 -147q69 27 99.5 60t30.5 87q-49 0 -73 26t-24 64q0 42 26 70t77 28q57 0 87.5 -43.5t30.5 -113.5q0 -76 -51.5 -145t-142.5 -101z" />
<glyph unicode="&#x2026;" horiz-adv-x="1228" d="M102 102q0 52 32.5 85.5t88.5 33.5t88.5 -33.5t32.5 -85.5t-32.5 -85t-88.5 -33t-88.5 33t-32.5 85zM494 102q0 52 32 85.5t88 33.5t88.5 -33.5t32.5 -85.5t-32.5 -85t-88.5 -33t-88 33t-32 85zM885 102q0 52 32.5 85.5t88.5 33.5t88 -33.5t32 -85.5t-32 -85t-88 -33 t-88.5 33t-32.5 85z" />
<glyph unicode="&#x202f;" horiz-adv-x="359" />
<glyph unicode="&#x2039;" horiz-adv-x="643" d="M82 485v68l428 348l61 -98l-319 -279l319 -286l-61 -103z" />
<glyph unicode="&#x203a;" horiz-adv-x="643" d="M82 233l319 279l-319 287l61 102l428 -350v-68l-428 -348z" />
<glyph unicode="&#x205f;" horiz-adv-x="449" />
<glyph unicode="&#x20ac;" horiz-adv-x="1335" d="M51 459l8 123h848l-8 -123h-577q48 -176 178.5 -261t316.5 -85q116 0 208 25t185 83l54 -127q-95 -65 -207.5 -93t-257.5 -28q-109 0 -209 29.5t-186 87.5t-149 153t-89 216h-115zM70 682l8 121h102q62 205 239 323.5t400 118.5q132 0 229 -29t193 -96l-65 -121 q-158 117 -357 117q-181 0 -307 -80t-184 -233h590l-9 -121h-839z" />
<glyph unicode="&#x2122;" horiz-adv-x="1265" d="M61 1247v84h437v-84h-172v-442h-93v442h-172zM592 805v526h106l191 -264l190 264h105v-526h-92v403l-183 -258h-45l-186 258v-403h-86z" />
<glyph unicode="&#x25fc;" horiz-adv-x="1024" d="M0 0v1024h1024v-1024h-1024z" />
</font>
</defs>
</svg>
